<svg version="1.0" xmlns="http://www.w3.org/2000/svg"
 width="1200.000000pt" height="350.000000pt" viewBox="0 0 1200.000000 350.000000"
 preserveAspectRatio="xMidYMid meet">

    <g transform="translate(0.000000,350.000000) scale(0.100000,-0.100000)"
    fill="#000000" stroke="none">
    <path d="M3210 3373 c-216 -16 -626 -132 -1025 -290 -727 -288 -1265 -676
    -1574 -1136 -162 -242 -227 -555 -166 -804 120 -485 716 -865 1560 -993 178
    -27 532 -38 696 -21 559 58 1219 397 1219 626 0 69 -74 114 -231 140 -124 20
    -460 20 -728 0 l-204 -16 -40 -35 c-58 -53 -165 -119 -238 -148 -107 -42 -177
    -56 -288 -56 -124 0 -206 18 -311 68 -176 83 -414 399 -383 507 l9 30 379 -5
    c684 -9 1192 -6 1302 8 452 58 670 258 739 682 20 119 19 341 -1 514 -41 348
    -135 604 -284 770 -98 108 -268 171 -431 159z m-242 -850 c55 -41 66 -96 67
    -318 0 -245 -6 -262 -100 -310 l-60 -30 -542 -3 c-470 -2 -543 -1 -543 12 0
    26 318 281 515 413 340 227 567 308 663 236z"/>
    <path d="M6810 2754 c-548 -51 -972 -259 -1230 -606 -80 -107 -111 -163 -168
    -313 -28 -71 -96 -238 -152 -370 -164 -385 -220 -575 -220 -744 0 -289 188
    -456 595 -527 196 -35 804 -28 1029 12 269 47 467 152 667 353 134 135 228
    269 342 491 238 459 367 845 367 1094 -1 405 -315 596 -1000 610 -102 2 -205
    2 -230 0z m63 -637 c57 -25 62 -38 61 -171 -1 -109 -6 -147 -58 -381 -77 -347
    -109 -464 -156 -561 -93 -194 -233 -272 -430 -243 -93 13 -125 33 -140 87 -23
    83 -16 130 66 505 70 318 94 401 149 515 56 118 141 208 225 240 67 25 231 30
    283 9z"/>
    <path d="M10959 2675 c-178 -30 -367 -103 -714 -277 -467 -234 -618 -294 -721
    -286 -61 5 -96 26 -132 78 -31 47 -43 99 -51 225 l-6 110 -69 17 c-218 55
    -481 43 -543 -24 -38 -41 -300 -685 -446 -1093 -152 -427 -335 -1059 -321
    -1112 11 -43 240 -123 349 -123 119 0 246 42 313 104 25 22 190 199 367 391
    434 471 613 645 842 817 221 166 471 295 638 329 122 25 156 24 188 -5 52 -48
    62 -82 61 -201 -2 -169 -50 -330 -259 -859 -103 -262 -135 -389 -115 -450 9
    -29 22 -39 89 -69 224 -103 471 -109 583 -15 22 19 51 96 166 433 214 627 285
    861 356 1165 67 289 66 428 -4 578 -105 225 -295 314 -571 267z"/>
    <path d="M4545 1889 c-194 -29 -342 -196 -412 -464 -38 -143 22 -241 172 -280
    118 -30 267 -12 392 50 116 57 156 118 213 322 17 62 37 128 45 147 14 32 13
    40 -6 91 -13 35 -32 64 -53 80 -60 45 -232 72 -351 54z"/>
    </g>
</svg>